HIERARCHY
ROOT Hips
{
	OFFSET 0.000000 0.000000 0.000000
	CHANNELS 6 Xposition Yposition Zposition Zrotation Yrotation Xrotation 
	JOINT LHipJoint
	{
		OFFSET 0.000000 0.000000 0.000000
		CHANNELS 3 Zrotation Yrotation Xrotation
		JOINT LeftUpLeg
		{
			OFFSET 1.363060 -1.794630 0.839290
			CHANNELS 3 Zrotation Yrotation Xrotation
			JOINT LeftLeg
			{
				OFFSET 2.448110 -6.726130 0.000000
				CHANNELS 3 Zrotation Yrotation Xrotation
				JOINT LeftFoot
				{
					OFFSET 2.562200 -7.039590 0.000000
					CHANNELS 3 Zrotation Yrotation Xrotation
					JOINT LeftToeBase
					{
						OFFSET 0.157640 -0.433110 2.322550
						CHANNELS 3 Zrotation Yrotation Xrotation
						End Site
						{
							OFFSET 0.000000 0.000000 0.000000
						}
					}
				}
			}
		}
	}
	JOINT RHipJoint
	{
		OFFSET 0.000000 0.000000 0.000000
		CHANNELS 3 Zrotation Yrotation Xrotation
		JOINT RightUpLeg
		{
			OFFSET -1.305520 -1.794630 0.839290
			CHANNELS 3 Zrotation Yrotation Xrotation
			JOINT RightLeg
			{
				OFFSET -2.542530 -6.985550 0.000000
				CHANNELS 3 Zrotation Yrotation Xrotation
				JOINT RightFoot
				{
					OFFSET -2.568260 -7.056230 0.000000
					CHANNELS 3 Zrotation Yrotation Xrotation
					JOINT RightToeBase
					{
						OFFSET -0.164730 -0.452590 2.363150
						CHANNELS 3 Zrotation Yrotation Xrotation
						End Site
						{
							OFFSET 0.000000 0.000000 0.000000
						}
					}
				}
			}
		}
	}
	JOINT LowerBack
	{
		OFFSET 0.000000 0.000000 0.000000
		CHANNELS 3 Zrotation Yrotation Xrotation
		JOINT Spine
		{
			OFFSET 0.028270 2.035590 -0.193380
			CHANNELS 3 Zrotation Yrotation Xrotation
			JOINT Spine1
			{
				OFFSET 0.056720 2.048850 -0.042750
				CHANNELS 3 Zrotation Yrotation Xrotation
				JOINT Neck
				{
					OFFSET 0.000000 0.000000 0.000000
					CHANNELS 3 Zrotation Yrotation Xrotation
					JOINT Neck1
					{
						OFFSET -0.054170 1.746240 0.172020
						CHANNELS 3 Zrotation Yrotation Xrotation
						JOINT Head
						{
							OFFSET 0.104070 1.761360 -0.123970
							CHANNELS 3 Zrotation Yrotation Xrotation
							End Site
							{
								OFFSET 0.000000 0.000000 0.000000
							}
						}
					}
				}
				JOINT LeftShoulder
				{
					OFFSET 0.000000 0.000000 0.000000
					CHANNELS 3 Zrotation Yrotation Xrotation
					JOINT LeftArm
					{
						OFFSET 3.362410 1.200890 -0.311210
						CHANNELS 3 Zrotation Yrotation Xrotation
						JOINT LeftForeArm
						{
							OFFSET 4.983000 -0.000000 -0.000000
							CHANNELS 3 Zrotation Yrotation Xrotation
							JOINT LeftHand
							{
								OFFSET 3.483560 -0.000000 -0.000000
								CHANNELS 3 Zrotation Yrotation Xrotation
								JOINT LeftFingerBase
								{
									OFFSET 0.000000 0.000000 0.000000
									CHANNELS 3 Zrotation Yrotation Xrotation
									JOINT LeftHandIndex1
									{
										OFFSET 0.715260 -0.000000 -0.000000
										CHANNELS 3 Zrotation Yrotation Xrotation
										End Site
										{
											OFFSET 0.000000 0.000000 0.000000
										}
									}
								}
								JOINT LThumb
								{
									OFFSET 0.000000 0.000000 0.000000
									CHANNELS 3 Zrotation Yrotation Xrotation
									End Site
									{
										OFFSET 0.000000 0.000000 0.000000
									}
								}
							}
						}
					}
				}
				JOINT RightShoulder
				{
					OFFSET 0.000000 0.000000 0.000000
					CHANNELS 3 Zrotation Yrotation Xrotation
					JOINT RightArm
					{
						OFFSET -3.136600 1.374050 -0.404650
						CHANNELS 3 Zrotation Yrotation Xrotation
						JOINT RightForeArm
						{
							OFFSET -5.241900 -0.000000 -0.000000
							CHANNELS 3 Zrotation Yrotation Xrotation
							JOINT RightHand
							{
								OFFSET -3.444170 -0.000000 -0.000000
								CHANNELS 3 Zrotation Yrotation Xrotation
								JOINT RightFingerBase
								{
									OFFSET 0.000000 0.000000 0.000000
									CHANNELS 3 Zrotation Yrotation Xrotation
									JOINT RightHandIndex1
									{
										OFFSET -0.622530 -0.000000 -0.000000
										CHANNELS 3 Zrotation Yrotation Xrotation
										End Site
										{
											OFFSET 0.000000 0.000000 0.000000
										}
									}
								}
								JOINT RThumb
								{
									OFFSET 0.000000 0.000000 0.000000
									CHANNELS 3 Zrotation Yrotation Xrotation
									End Site
									{
										OFFSET 0.000000 0.000000 0.000000
									}
								}
							}
						}
					}
				}
			}
		}
	}
}
MOTION
Frames: 6
Frame Time: 0.008333
7.214372 16.133822 2.120667 24.789847 66.270222 39.422447 -8.349526 2.233561 3.838637 -16.702048 -9.458155 -23.601657 -2.900817 0.910604 38.790597 1.412334 0.254058 -25.827976 -1.105200 0.000000 -41.202300 13.537949 -1.267679 0.828544 -2.836695 -2.059479 -35.032568 -3.177801 -5.542149 85.496565 -1.896734 -9.773448 -12.802365 0.683800 -0.000000 -20.941100 -6.003141 -0.225105 -5.549727 -1.835347 0.182592 -4.204730 -6.539565 0.309657 -2.523136 8.933472 -9.149261 -6.625906 -4.304649 -0.339905 0.205209 0.000000 0.000000 0.000000 3.547887 6.422474 -1.456589 -72.535215 -13.301755 20.309743 -179.318496 -69.089580 179.807954 22.562957 -20.731016 -4.545861 -0.636624 1.223726 -0.000000 0.000000 0.000000 0.000000 0.000000 0.000000 0.000000 11.968140 -3.102026 -0.347366 80.133930 0.588666 34.811142 -179.439005 81.573007 179.872473 -13.173898 24.305917 -3.007044 0.166298 -0.995711 -0.000000 0.000000 0.000000 0.000000 0.000000 0.000000 0.000000 
7.387607 16.216507 2.207780 24.103243 66.080870 38.671360 -8.424874 2.344716 3.800128 -16.402171 -9.078148 -21.760534 -2.919040 0.762707 36.670973 1.349835 0.417130 -24.734838 -1.076900 -0.000001 -41.936800 13.360357 -1.084652 0.895064 -2.401168 -1.917498 -35.995521 -2.986792 -5.434019 84.241457 -1.842509 -9.314308 -13.165835 0.706600 -0.000000 -20.969600 -5.658839 -0.584962 -5.545815 -1.704014 -0.200176 -4.181025 -6.404096 -0.087620 -2.499536 8.744003 -9.657905 -6.659877 -4.236616 -0.334699 0.208068 0.000000 0.000000 0.000000 4.213264 5.657971 -1.522839 -73.024351 -14.199549 20.977015 -179.296498 -68.490320 179.805322 22.055059 -21.000697 -4.508319 -0.633527 1.266758 -0.000000 0.000000 0.000000 0.000000 0.000000 0.000000 0.000000 11.394639 -3.919391 -0.336813 79.495069 -0.893250 34.426013 -179.434514 81.049099 179.871960 -13.123511 24.097885 -2.966842 0.158860 -0.981984 -0.000000 0.000000 0.000000 0.000000 0.000000 0.000000 0.000000 
7.564327 16.309864 2.300255 23.401458 65.882179 37.910644 -8.509644 2.470420 3.773674 -16.067112 -8.669204 -19.881350 -2.917268 0.616077 34.372802 1.255599 0.569216 -23.212323 -1.008100 0.000000 -43.223400 13.166878 -0.913388 0.973145 -1.922194 -1.774450 -36.858543 -2.767278 -5.303244 82.671504 -1.784549 -8.814196 -13.417099 0.706200 -0.000000 -21.277400 -5.309730 -0.970414 -5.576080 -1.566648 -0.609287 -4.163890 -6.254825 -0.511581 -2.462239 8.549668 -10.131638 -6.708503 -4.165465 -0.329194 0.207235 0.000000 0.000000 0.000000 4.875493 5.011614 -1.583970 -73.463925 -14.950221 21.614127 -179.271158 -67.814340 179.803723 21.537596 -21.248448 -4.461233 -0.630450 1.308700 -0.000000 0.000000 0.000000 0.000000 0.000000 0.000000 0.000000 10.804940 -4.687082 -0.340538 78.820062 -2.316562 34.102772 -179.434565 80.491956 179.872303 -12.994080 23.955550 -2.917337 0.150784 -0.970110 -0.000000 0.000000 0.000000 0.000000 0.000000 0.000000 0.000000 
7.744331 16.413089 2.398158 22.682265 65.673405 37.139728 -8.606850 2.613252 3.754039 -15.693621 -8.204132 -17.991369 -2.894209 0.477524 31.926076 1.124630 0.669807 -21.210969 -0.886000 -0.000000 -45.191301 12.960165 -0.756981 1.064885 -1.405668 -1.622718 -37.614811 -2.524968 -5.150807 80.783974 -1.723112 -8.278586 -13.524064 0.680200 -0.000000 -21.886500 -4.956970 -1.373645 -5.638152 -1.425038 -1.037109 -4.152531 -6.098998 -0.954386 -2.408231 8.360840 -10.578331 -6.773865 -4.093925 -0.323561 0.201902 0.000000 0.000000 0.000000 5.501400 4.490392 -1.637516 -73.842522 -15.586040 22.242985 -179.240251 -67.100835 179.803213 21.025858 -21.463756 -4.406006 -0.628038 1.348725 -0.000000 0.000000 0.000000 0.000000 0.000000 0.000000 0.000000 10.228969 -5.413427 -0.361486 78.103849 -3.674294 33.819934 -179.438895 79.915101 179.873249 -12.828480 23.861015 -2.866126 0.143053 -0.959566 -0.000000 0.000000 0.000000 0.000000 0.000000 0.000000 0.000000 
7.927307 16.525276 2.501356 21.938168 65.452596 36.352043 -8.719426 2.775166 3.735885 -15.277030 -7.656827 -16.117538 -2.850089 0.354015 29.362403 0.956936 0.683138 -18.702917 -0.709400 -0.000001 -47.902400 12.742324 -0.618836 1.171986 -0.855004 -1.454787 -38.257062 -2.265971 -4.977750 78.576115 -1.658549 -7.715838 -13.454825 0.627900 0.000000 -22.821900 -4.599861 -1.785413 -5.728856 -1.280349 -1.474655 -4.147839 -5.940797 -1.407125 -2.342656 8.183270 -11.006122 -6.850488 -4.024583 -0.318063 0.193567 0.000000 0.000000 0.000000 6.072885 4.063463 -1.682825 -74.161973 -16.096656 22.860390 -179.205968 -66.371735 179.803684 20.526927 -21.642438 -4.343639 -0.626208 1.386225 -0.000000 0.000000 0.000000 0.000000 0.000000 0.000000 0.000000 9.685851 -6.107348 -0.398640 77.344527 -4.964905 33.557861 -179.447277 79.330437 179.874581 -12.668828 23.793537 -2.820104 0.136623 -0.949762 -0.000000 0.000000 0.000000 0.000000 0.000000 0.000000 0.000000 
8.113143 16.645223 2.609504 21.157482 65.218405 35.542501 -8.850756 2.957149 3.716628 -14.810189 -7.008069 -14.296277 -2.786275 0.252256 26.723668 0.758786 0.581830 -15.691019 -0.492300 0.000000 -51.308500 12.514155 -0.502548 1.297434 -0.269423 -1.263703 -38.785975 -1.996068 -4.784973 76.047950 -1.591705 -7.138080 -13.190932 0.551700 -0.000000 -24.025700 -4.234049 -2.196487 -5.849714 -1.132842 -1.913285 -4.150141 -5.782944 -1.861174 -2.265145 8.020047 -11.431246 -6.937929 -3.958419 -0.312791 0.182429 0.000000 0.000000 0.000000 6.575365 3.713683 -1.720997 -74.432398 -16.487183 23.472002 -179.169917 -65.649986 179.805040 20.047828 -21.781865 -4.275735 -0.625017 1.420747 -0.000000 0.000000 0.000000 0.000000 0.000000 0.000000 0.000000 9.185928 -6.786139 -0.451535 76.542275 -6.179164 33.308248 -179.459839 78.749184 179.876178 -12.553250 23.731179 -2.785067 0.132466 -0.940094 -0.000000 0.000000 0.000000 0.000000 0.000000 0.000000 0.000000 
